<svg xmlns="http://www.w3.org/2000/svg" width="640" height="380" viewBox="0 0 640 380">
<rect width="640" height="380" fill="#0f0f14"/>
<rect width="640" height="44" fill="#16161f"/>
<text x="16" y="28" fill="#fbbf24" font-size="15" font-weight="bold" font-family="DejaVu Sans,Arial,sans-serif">bayt_python_jobs.xlsx  ·  281 jobs</text>
<rect x="12" y="56" width="616" height="28" fill="#1e1e2a"/>
<text x="24" y="74" fill="#fbbf24" font-size="11" font-weight="bold" font-family="DejaVu Sans,Arial,sans-serif">#</text>
<text x="48" y="74" fill="#fbbf24" font-size="11" font-weight="bold" font-family="DejaVu Sans,Arial,sans-serif">Job Title</text>
<rect x="12" y="86" width="616" height="26" fill="#12121a"/>
<text x="24" y="103" fill="#818cf8" font-size="11" font-family="DejaVu Sans,Arial,sans-serif">1</text>
<text x="48" y="103" fill="#e8e8ed" font-size="11" font-family="DejaVu Sans,Arial,sans-serif">Python Developer</text>
<rect x="12" y="112" width="616" height="26" fill="#16161f"/>
<text x="24" y="129" fill="#818cf8" font-size="11" font-family="DejaVu Sans,Arial,sans-serif">2</text>
<text x="48" y="129" fill="#e8e8ed" font-size="11" font-family="DejaVu Sans,Arial,sans-serif">AWS Bedrock Developer-Terraform-Python Con…</text>
<rect x="12" y="138" width="616" height="26" fill="#12121a"/>
<text x="24" y="155" fill="#818cf8" font-size="11" font-family="DejaVu Sans,Arial,sans-serif">3</text>
<text x="48" y="155" fill="#e8e8ed" font-size="11" font-family="DejaVu Sans,Arial,sans-serif">Senior Python Developer</text>
<rect x="12" y="164" width="616" height="26" fill="#16161f"/>
<text x="24" y="181" fill="#818cf8" font-size="11" font-family="DejaVu Sans,Arial,sans-serif">4</text>
<text x="48" y="181" fill="#e8e8ed" font-size="11" font-family="DejaVu Sans,Arial,sans-serif">Specialist(VBA &amp; Python developer)</text>
<rect x="12" y="190" width="616" height="26" fill="#12121a"/>
<text x="24" y="207" fill="#818cf8" font-size="11" font-family="DejaVu Sans,Arial,sans-serif">5</text>
<text x="48" y="207" fill="#e8e8ed" font-size="11" font-family="DejaVu Sans,Arial,sans-serif">Specialist / Team Lead - Python Developer</text>
<rect x="12" y="216" width="616" height="26" fill="#16161f"/>
<text x="24" y="233" fill="#818cf8" font-size="11" font-family="DejaVu Sans,Arial,sans-serif">6</text>
<text x="48" y="233" fill="#e8e8ed" font-size="11" font-family="DejaVu Sans,Arial,sans-serif">Senior Python Developer</text>
<rect x="12" y="242" width="616" height="26" fill="#12121a"/>
<text x="24" y="259" fill="#818cf8" font-size="11" font-family="DejaVu Sans,Arial,sans-serif">7</text>
<text x="48" y="259" fill="#e8e8ed" font-size="11" font-family="DejaVu Sans,Arial,sans-serif">AI Full Stack Engineer - AI Platform</text>
<rect x="12" y="268" width="616" height="26" fill="#16161f"/>
<text x="24" y="285" fill="#818cf8" font-size="11" font-family="DejaVu Sans,Arial,sans-serif">8</text>
<text x="48" y="285" fill="#e8e8ed" font-size="11" font-family="DejaVu Sans,Arial,sans-serif">Full Stack Developer - Onsite | ISL | PKR …</text>
<rect x="12" y="294" width="616" height="26" fill="#12121a"/>
<text x="24" y="311" fill="#818cf8" font-size="11" font-family="DejaVu Sans,Arial,sans-serif">9</text>
<text x="48" y="311" fill="#e8e8ed" font-size="11" font-family="DejaVu Sans,Arial,sans-serif">Senior Full Stack Developer (React &amp; Pytho…</text>
<rect x="12" y="320" width="616" height="26" fill="#16161f"/>
<text x="24" y="337" fill="#818cf8" font-size="11" font-family="DejaVu Sans,Arial,sans-serif">10</text>
<text x="48" y="337" fill="#e8e8ed" font-size="11" font-family="DejaVu Sans,Arial,sans-serif">Java Full Stack Developer</text>
<text x="16" y="360" fill="#9898a8" font-size="11" font-family="DejaVu Sans,Arial,sans-serif">+ 271 more jobs  ·  Playwright full pagination  ·  Excel export</text>
</svg>
